<svg width="67" height="25" viewBox="0 0 67 25" fill="none" xmlns="http://www.w3.org/2000/svg">
<path fill-rule="evenodd" clip-rule="evenodd" d="M12.6632 2.59711C11.9502 1.04728 10.952 0.272437 9.66855 0.189424C7.84313 0.189351 6.01785 0.189388 4.3636 0.189461C3.19435 1.57316 1.73979 3.39965 0 5.66891C2.3219 5.65159 4.83925 5.49367 7.41089 5.7733C9.4743 5.99768 11.1784 6.70145 12.4065 8.07657C12.5776 5.89033 12.6061 4.09143 12.6632 2.59711Z" fill="#115B82"/>
<path fill-rule="evenodd" clip-rule="evenodd" d="M12.6632 2.59711C11.9502 1.04728 10.952 0.272437 9.66855 0.189424C7.84313 0.189351 6.01785 0.189388 4.3636 0.189461C3.19435 1.57316 1.73979 3.39965 0 5.66891C2.3219 5.65159 4.83925 5.49367 7.41089 5.7733C9.4743 5.99768 11.1784 6.70145 12.4065 8.07657C12.5776 5.89033 12.6061 4.09143 12.6632 2.59711Z" fill="#115B82"/>
<path fill-rule="evenodd" clip-rule="evenodd" d="M5.29646 6.72772V24.0692H12.3841V9.68489C10.5257 7.45268 8.10576 6.8442 5.29646 6.72772Z" fill="#115B82"/>
<path fill-rule="evenodd" clip-rule="evenodd" d="M5.29646 6.72772V24.0692H12.3841V9.68489C10.5257 7.45268 8.10576 6.8442 5.29646 6.72772Z" fill="#115B82"/>
<path fill-rule="evenodd" clip-rule="evenodd" d="M29.0643 23.8346C25.8726 24.1027 22.2811 24.4926 19.3005 23.0338C17.6167 22.2098 16.2791 21.0443 15.3035 19.5376C13.2476 16.3623 12.903 9.12665 15.0695 5.18864C15.634 4.16235 16.4316 3.37826 17.3716 2.69399C19.7124 0.989133 22.861 0.091014 26.8172 0C22.6164 3.33025 20.8301 5.78521 20.5184 9.51188C20.3461 11.5724 20.21 15.4918 21.949 16.8951C22.3939 17.254 22.909 17.5588 23.4919 17.7637C26.4188 18.7924 31.1151 18.2388 33.8179 17.9624C32.0607 20.8984 30.2455 22.9135 29.0643 23.8346Z" fill="#115B82"/>
<path fill-rule="evenodd" clip-rule="evenodd" d="M29.0643 23.8346C25.8726 24.1027 22.2811 24.4926 19.3005 23.0338C17.6167 22.2098 16.2791 21.0443 15.3035 19.5376C13.2476 16.3623 12.903 9.12665 15.0695 5.18864C15.634 4.16235 16.4316 3.37826 17.3716 2.69399C19.7124 0.989133 22.861 0.091014 26.8172 0C22.6164 3.33025 20.8301 5.78521 20.5184 9.51188C20.3461 11.5724 20.21 15.4918 21.949 16.8951C22.3939 17.254 22.909 17.5588 23.4919 17.7637C26.4188 18.7924 31.1151 18.2388 33.8179 17.9624C32.0607 20.8984 30.2455 22.9135 29.0643 23.8346Z" fill="#115B82"/>
<path fill-rule="evenodd" clip-rule="evenodd" d="M51.3827 0.385273C54.5744 0.117202 58.1658 -0.272759 61.1465 1.18606C62.8305 2.01015 64.1678 3.17557 65.1434 4.68229C67.1993 7.85767 67.5441 15.0933 65.3775 19.0313C64.8128 20.0576 64.0153 20.8416 63.0755 21.5259C60.7347 23.2308 57.5858 24.1289 53.6298 24.2199C57.8308 20.8897 59.6168 18.4347 59.9288 14.708C60.101 12.6475 60.237 8.72813 58.4978 7.32479C58.0532 6.96588 57.5379 6.66111 56.955 6.4562C54.0281 5.42753 49.332 5.98116 46.6292 6.2575C48.3863 3.32154 50.2016 1.30637 51.3827 0.385273Z" fill="#115B82"/>
<path fill-rule="evenodd" clip-rule="evenodd" d="M51.3827 0.385273C54.5744 0.117202 58.1658 -0.272759 61.1465 1.18606C62.8305 2.01015 64.1678 3.17557 65.1434 4.68229C67.1993 7.85767 67.5441 15.0933 65.3775 19.0313C64.8128 20.0576 64.0153 20.8416 63.0755 21.5259C60.7347 23.2308 57.5858 24.1289 53.6298 24.2199C57.8308 20.8897 59.6168 18.4347 59.9288 14.708C60.101 12.6475 60.237 8.72813 58.4978 7.32479C58.0532 6.96588 57.5379 6.66111 56.955 6.4562C54.0281 5.42753 49.332 5.98116 46.6292 6.2575C48.3863 3.32154 50.2016 1.30637 51.3827 0.385273Z" fill="#115B82"/>
<path fill-rule="evenodd" clip-rule="evenodd" d="M30.5336 24.0075C33.8901 21.2076 35.9937 18.1083 36.4916 13.9975C36.6387 12.7842 36.6189 11.5569 36.7356 10.3397C36.9634 7.96301 37.547 5.56861 39.3393 3.7578C41.5228 1.55149 44.7817 0.442513 49.6344 0.0863495C45.6312 3.67233 44.1641 6.60023 43.5808 11.1483C43.4393 12.2535 43.4126 13.374 43.2312 14.4729C42.2102 20.6526 37.1291 24.2757 30.5336 24.0075Z" fill="#115B82"/>
<path fill-rule="evenodd" clip-rule="evenodd" d="M30.5336 24.0075C33.8901 21.2076 35.9937 18.1083 36.4916 13.9975C36.6387 12.7842 36.6189 11.5569 36.7356 10.3397C36.9634 7.96301 37.547 5.56861 39.3393 3.7578C41.5228 1.55149 44.7817 0.442513 49.6344 0.0863495C45.6312 3.67233 44.1641 6.60023 43.5808 11.1483C43.4393 12.2535 43.4126 13.374 43.2312 14.4729C42.2102 20.6526 37.1291 24.2757 30.5336 24.0075Z" fill="#115B82"/>
<path fill-rule="evenodd" clip-rule="evenodd" d="M35.4826 7.88387C34.4214 7.02927 33.4886 6.61302 32.4771 6.3582C29.5866 5.63003 26.1922 6.05336 23.0766 6.14972C24.8121 3.08824 26.6119 1.16142 28.4118 0.176603C29.9133 0.124392 31.3273 0.127863 32.6684 0.201522C34.2233 0.286909 35.4856 0.463456 36.9276 1.05857C37.8677 1.44671 38.4576 1.81639 38.6967 2.16766C36.9181 3.85897 35.8469 5.78579 35.4826 7.88387Z" fill="#115B82"/>
<path fill-rule="evenodd" clip-rule="evenodd" d="M35.4826 7.88387C34.4214 7.02927 33.4886 6.61302 32.4771 6.3582C29.5866 5.63003 26.1922 6.05336 23.0766 6.14972C24.8121 3.08824 26.6119 1.16142 28.4118 0.176603C29.9133 0.124392 31.3273 0.127863 32.6684 0.201522C34.2233 0.286909 35.4856 0.463456 36.9276 1.05857C37.8677 1.44671 38.4576 1.81639 38.6967 2.16766C36.9181 3.85897 35.8469 5.78579 35.4826 7.88387Z" fill="#115B82"/>
<path fill-rule="evenodd" clip-rule="evenodd" d="M44.1703 16.336C45.26 17.1906 46.2178 17.6069 47.2563 17.8617C50.2242 18.5899 53.7095 18.1665 56.9086 18.0702C55.1266 21.1317 53.2784 23.0585 51.4306 24.0433C49.8889 24.0955 48.4367 24.092 47.0599 24.0184C45.4634 23.933 44.1674 23.7564 42.6867 23.1613C41.7213 22.7732 41.1157 22.4035 40.8704 22.0522C42.6962 20.3609 43.7962 18.4341 44.1703 16.336Z" fill="#115B82"/>
<path fill-rule="evenodd" clip-rule="evenodd" d="M44.1703 16.336C45.26 17.1906 46.2178 17.6069 47.2563 17.8617C50.2242 18.5899 53.7095 18.1665 56.9086 18.0702C55.1266 21.1317 53.2784 23.0585 51.4306 24.0433C49.8889 24.0955 48.4367 24.092 47.0599 24.0184C45.4634 23.933 44.1674 23.7564 42.6867 23.1613C41.7213 22.7732 41.1157 22.4035 40.8704 22.0522C42.6962 20.3609 43.7962 18.4341 44.1703 16.336Z" fill="#115B82"/>
</svg>
